<svg width="17" height="20" viewBox="0 0 17 20" fill="none" xmlns="http://www.w3.org/2000/svg">
<path fill-rule="evenodd" clip-rule="evenodd" d="M8.5 19C15 15.5 16 7 16 6C16 5 16 4 14.5 4C13.5 4 12.5 3.25 11.5 2.5C10.5 1.75 9.5 1 8.5 1V19Z" fill="#2750B8"/>
<path fill-rule="evenodd" clip-rule="evenodd" d="M5.5 2.5C4.5 3.25 3.5 4 2.5 4C1 4 1 5 1 6C1 7 2 15.5 8.5 19C15 15.5 16 7 16 6C16 5 16 4 14.5 4C13.5 4 12.5 3.25 11.5 2.5C10.5 1.75 9.5 1 8.5 1C7.5 1 6.5 1.75 5.5 2.5Z" stroke="#2750B8"/>
</svg>
